<?xml version="1.0" encoding="UTF-8"?>
<svg version="1.1" viewBox="0 0 1292 1292" width="323" height="323" xmlns="http://www.w3.org/2000/svg">
<path transform="translate(0)" d="m0 0h1292v1292h-1292z" fill="#E3E3E3"/>
<path transform="translate(313,323)" d="m0 0h57l410 1 5 2 18 2 20 5 13 4 9 3 19 9 6 5 8 5 10 7 9 8 4 7 7 9 4 7 4 5 4 9 4 13 1 10 3 4 1 22h2l1 2v44l-3 4-1 16-3 7-1 9-3 6-3 9-7 14-6 8-3 5-9 10-10 10-11 7-6 5-8 1-4 3-7 3-2 1-12 1-1 2-4 1-22 1-5 4-1 2h15l8 1 2 2 14 2 1 3 7 1 3 3h6l11 6 12 11 13 13 4 5 4 9 2 8 2 3 2 9 2 4 1 17 3 1 1 61 3 4 3 7 3 2h22l2-4 4-3 1-4 1-107 1-1h47v111l-3 3-1 20-3 6-2 7-8 17-6 10-7 7-3 6-5 5-6 3-9 8-17 9-9 4-12 1-1 2-15 2-1 2-5 1-18 1-1 2-3 1h-60l-2-3-21-1-4-3-12-1-4-3-10-2-2-2-9-1-8-7-6-3-9-9-6-2-3-7-5-6-3-6-5-6-3-6-2-7-1-8-3-5v-20l-3-1-1-8v-87l-3-1-1-8-1-10-9-17-8-7-15-8h-37v67l5 11 7 7 8 4 4 1 18 1 5 3 4 1v144h-344l-4-4-1-14v-82l1-44 12-3 2-1 25-2 9-5 14-14 1-77v-156l-3-9-4-6-7-6-12-5-9-3-29-1v-114l1-30z"/>
<path transform="translate(609,468)" d="m0 0h53l6 3 9 3 8 5 3 4 3 6 4 4 1 9 1 5 2 1 1 5v29l-2 6-3 11-2 3-2 9-13 13-7 3-5 1-21 1-2 3h-28l-5-3-2-3v-117z" fill="#E3E3E3"/>
<path transform="translate(560,992)" d="m0 0h16l3 4 1 4v14l-3 3 1 6 5 10v3h-6l-1-4-6-16-2-1 1 16 4 2-1 3h-11v-3l2-3v-35l-3-1z"/>
<path transform="translate(717,991)" d="m0 0 11 1 1 21 3 7 1 10 2 3v3h-23l1-4h2l1-15 3-4v-15l-3-3z"/>
<path transform="translate(605,991)" d="m0 0 11 1 1 24h2l1 2 1 12 2 3v3h-23l2-4 1-4 1-11 3-2v-20l-3-1z"/>
<path transform="translate(644,992)" d="m0 0h20v10l-1 2h-3l-1-7-1-1h-5v15l8 1-2 4-7-1 1 16 3 2v3h-11v-4l2-1v-36l-3-1z"/>
<path transform="translate(680,992)" d="m0 0h12l-1 3h-2l-1 37 4 1-1 3h-10v-4l2-1v-35l-3-2z"/>
<path transform="translate(569,995)" d="m0 0 6 1 1 2v13l-1 1h-6l-1-1v-15z" fill="#E3E3E3"/>
<path transform="translate(721,1019)" d="m0 0 6 1 1 1v11h-8l-1-2 1-10z" fill="#E3E3E3"/>
<path transform="translate(609,1019)" d="m0 0 6 1 1 2v10h-8l-1-2 1-10z" fill="#E3E3E3"/>
</svg>
